<?xml version="1.0" encoding="utf-8"?>
<svg viewBox="0 0 4542.894 993.812" xmlns="http://www.w3.org/2000/svg">
  <g transform="matrix(1.065962, 0, 0, 1.065962, -248.229004, -87.940674)" style="">
    <path class="st0" d="M253.9,655c0-29.8-0.4-59.7,0.1-89.5c1.2-87,29.1-163.9,88-228.6c8.9-9.8,10.9-17.5,3.6-29.9 c-34.1-57.4-67.2-115.5-100.7-173.3c-2.9-5-5.9-9.9-8.4-15.1c-6.5-13.4-4.1-25.9,5.8-32.2c11.4-7.2,25.4-4.1,33.6,8.8 c10.5,16.6,20,33.9,29.8,51c25.7,44.5,51.5,89,77,133.7c5,8.7,8.5,12.8,19.1,5.3c58.2-41.1,124.4-61.1,194-71.4 c34.7-5.2,69.7-8.5,104.6-8.1c75,0.9,149.4,7.5,220.7,34c32.1,11.9,63.1,26,90.9,46.2c8.3,6,11.3,4.5,16-3.7 c35.1-61.3,70.5-122.4,105.9-183.5c8.9-15.4,21.6-20.1,34.6-12.9c12.1,6.7,14.1,20.7,5.1,36.3c-36.8,63.6-73.6,127.3-110.7,190.8 c-4.2,7.2-5,11.8,1.5,18.5c50.7,52,79.1,115,90.4,186.2c2.1,13.2,2.8,26.8,2.9,40.2c0.3,65-0.3,129.9,0.3,194.9 c0.5,54.9-23.4,98.1-61.8,134.6c-56.9,54-127.6,79.4-202.6,92.9c-132.1,23.7-264.4,23.5-396.1-4.4C441.5,964,388.5,944.1,342,910 c-45.7-33.5-80-75.7-86.5-133.9c-3.5-30.9-1.3-62.4-1.6-93.7C253.8,673.3,253.9,664.1,253.9,655z M1112,658.2 c0-33.7,0.9-67.4-0.2-101c-2.2-72.9-27.6-137.3-76.8-191.1c-64.6-70.6-149.6-98.1-241.2-109.4c-56.8-7-113.8-6.8-170.9-0.5 c-63.2,6.9-124.1,21.8-178.8,55.1c-93.8,57.2-142,142-144.4,251.9c-1.4,64-0.1,128-0.3,192c-0.1,25.4,7.3,48.3,21.6,69 c21.4,31.2,49.6,54.6,83.2,71.6c75.4,38.1,157.1,49.3,239.7,53.6c80.6,4.1,161.2,2,240.8-13.6c60.3-11.9,118.4-29.6,167-69.4 c38.5-31.6,63.5-70,60.4-122.8C1110.7,715,1112,686.6,1112,658.2z" style="fill: rgb(111, 182, 254);"/>
    <path class="st1" d="M1112,658.2c0,28.4-1.4,56.9,0.3,85.2c3.1,52.9-21.9,91.3-60.4,122.8c-48.6,39.8-106.7,57.6-167,69.4 c-79.6,15.6-160.3,17.8-240.8,13.6c-82.6-4.2-164.3-15.5-239.7-53.6c-33.6-17-61.8-40.4-83.2-71.6c-14.3-20.7-21.7-43.6-21.6-69 c0.2-64-1.1-128,0.3-192c2.4-109.9,50.6-194.7,144.4-251.9c54.6-33.3,115.6-48.1,178.8-55.1c57-6.3,114-6.5,170.9,0.5 c91.6,11.3,176.6,38.8,241.2,109.4c49.2,53.7,74.5,118.1,76.8,191.1C1112.9,590.8,1112,624.5,1112,658.2z M705.4,488.2 c-54.8,0-109.5-0.2-164.3,0.1c-29.1,0.2-56.9,6.3-83.2,19.7c-97.9,49.9-120.8,186.3-44.6,265.6c36.5,38,81.8,54.1,133.4,54.2 c59.6,0.2,119.2,0.4,178.7-0.1c54.7-0.5,109.5,2.2,164.2-1.7c116-8.2,189.2-135.4,137.5-240.5c-31.6-64.3-85.2-95.8-156-97.2 C815.9,487.3,760.7,488.2,705.4,488.2z" style="fill: rgb(253, 253, 254);"/>
    <path class="st0" d="M705.4,488.2c55.3,0,110.5-0.8,165.8,0.2c70.8,1.3,124.5,32.8,156,97.2c51.6,105.2-21.5,232.3-137.5,240.5 c-54.7,3.9-109.4,1.2-164.2,1.7c-59.6,0.5-119.2,0.3-178.7,0.1c-51.7-0.2-96.9-16.3-133.4-54.2c-76.3-79.3-53.3-215.7,44.6-265.6 c26.3-13.4,54-19.5,83.2-19.7C595.9,487.9,650.6,488.2,705.4,488.2z M874.4,591.2c-38,0.1-67.5,29.7-67.2,67.6 c0.2,36.7,31.5,67.4,68.6,67.2c35.7-0.2,66.3-31.4,66.5-67.9C942.4,620.3,912.8,591.1,874.4,591.2z M537.4,725 c37.9-0.2,67.5-30.2,67.2-67.9c-0.3-37.3-30.5-66.1-69-65.9c-37.6,0.2-66.1,29.1-66.2,67C469.4,696.1,499,725.2,537.4,725z" style="fill: rgb(111, 182, 254);"/>
    <path class="st1" d="M874.4,591.2c38.4-0.1,68,29.1,67.8,66.9c-0.2,36.5-30.7,67.7-66.5,67.9c-37.1,0.2-68.4-30.5-68.6-67.2 C806.9,620.9,836.4,591.3,874.4,591.2z M896.5,657.2c-0.1-11.4-9.8-21.5-20.7-21.8c-12.8-0.3-23.3,10-22.9,22.5 c0.4,12.9,9.4,22.5,21.4,22.7C886.7,680.9,896.7,670.3,896.5,657.2z" style="fill: rgb(253, 253, 254);"/>
    <path class="st1" d="M537.4,725c-38.4,0.2-68.1-28.9-68-66.8c0.1-37.9,28.5-66.8,66.2-67c38.5-0.2,68.7,28.6,69,65.9 C604.9,694.9,575.3,724.8,537.4,725z M537.6,680.7c12.4-0.3,21.8-11.1,21.2-24.1c-0.6-11.4-10.6-21.3-21.3-21.1 c-12.6,0.2-23.3,10.7-23.3,22.7C514.2,670,525.6,681,537.6,680.7z" style="fill: rgb(253, 253, 254);"/>
    <path class="st0" d="M896.5,657.2c0.2,13.1-9.8,23.6-22.2,23.4c-12-0.2-21-9.8-21.4-22.7c-0.4-12.5,10-22.8,22.9-22.5 C886.8,635.7,896.4,645.8,896.5,657.2z" style="fill: rgb(111, 182, 254);"/>
    <path class="st0" d="M537.6,680.7c-12,0.3-23.4-10.7-23.4-22.5c0-12,10.7-22.5,23.3-22.7c10.7-0.2,20.7,9.7,21.3,21.1 C559.4,669.5,550,680.3,537.6,680.7z" style="fill: rgb(111, 182, 254);"/>
  </g>
  <text style="fill: rgb(117, 182, 250); font-family: Corbel; font-size: 591.2px; white-space: pre;" x="56.304" y="42.479"><tspan x="1167.713" y="782.288" style="font-size: 798.1px; word-spacing: 0px;">Ezy</tspan><tspan style="font-weight: 700; font-size: 798.1px; word-spacing: 0px;">Quant</tspan></text>
</svg>