<?xml version="1.0" encoding="UTF-8"?>
<svg xmlns="http://www.w3.org/2000/svg" xmlns:xlink="http://www.w3.org/1999/xlink" viewBox="0 0 500 500" width="500px" height="500px">
<g id="surface190942771">
<path style=" stroke:none;fill-rule:nonzero;fill:rgb(10.196079%,73.725492%,61.176473%);fill-opacity:1;" d="M 250 20 C 207.785156 20 170.460938 41.53125 148.417969 74.179688 C 84.886719 78.574219 34.394531 131.632812 34.394531 196.25 C 34.394531 215.535156 39.015625 233.742188 47.011719 250 C 39.015625 266.257812 34.394531 284.464844 34.394531 303.75 C 34.394531 368.367188 84.886719 421.425781 148.417969 425.820312 C 170.460938 458.46875 207.785156 480 250 480 C 292.214844 480 329.539062 458.46875 351.582031 425.820312 C 415.113281 421.425781 465.605469 368.367188 465.605469 303.75 C 465.605469 284.464844 460.984375 266.257812 452.988281 250 C 460.984375 233.742188 465.605469 215.535156 465.605469 196.25 C 465.605469 131.632812 415.113281 78.574219 351.582031 74.179688 C 329.539062 41.53125 292.214844 20 250 20 Z M 250 50 C 275.632812 50 298.75 60.3125 315.46875 77.03125 C 289.546875 83.058594 266.746094 97.28125 250 116.894531 C 233.253906 97.28125 210.453125 83.058594 184.53125 77.03125 C 201.25 60.3125 224.367188 50 250 50 Z M 165.820312 104.199219 C 187.871094 106.289062 207.609375 116.027344 222.363281 130.78125 C 198.34375 136.363281 177.03125 149.007812 160.703125 166.445312 C 158.671875 158.800781 157.5 150.800781 157.5 142.5 C 157.5 128.800781 160.527344 115.871094 165.820312 104.199219 Z M 334.179688 104.199219 C 339.472656 115.871094 342.5 128.800781 342.5 142.5 C 342.5 150.800781 341.328125 158.800781 339.296875 166.445312 C 322.96875 149.007812 301.65625 136.363281 277.636719 130.78125 C 292.390625 116.027344 312.128906 106.289062 334.179688 104.199219 Z M 132.8125 106.992188 C 129.390625 118.242188 127.5 130.15625 127.5 142.5 C 127.5 156.84375 130.125 170.570312 134.6875 183.378906 C 108.453125 188.222656 85.148438 201.453125 67.597656 220.195312 C 65.566406 212.550781 64.394531 204.550781 64.394531 196.25 C 64.394531 153.335938 93.328125 117.546875 132.8125 106.992188 Z M 367.1875 106.992188 C 406.671875 117.546875 435.605469 153.335938 435.605469 196.25 C 435.605469 204.550781 434.433594 212.550781 432.402344 220.195312 C 414.851562 201.453125 391.546875 188.222656 365.3125 183.378906 C 369.875 170.570312 372.5 156.84375 372.5 142.5 C 372.5 130.15625 370.609375 118.242188 367.1875 106.992188 Z M 225.917969 160.742188 C 222.496094 171.992188 220.605469 183.90625 220.605469 196.25 C 220.605469 197.332031 220.734375 198.378906 220.761719 199.453125 C 209.707031 192.652344 197.519531 187.550781 184.53125 184.53125 C 195.800781 173.261719 210.015625 164.992188 225.917969 160.742188 Z M 274.082031 160.742188 C 289.984375 164.992188 304.199219 173.261719 315.46875 184.53125 C 302.480469 187.550781 290.292969 192.652344 279.238281 199.453125 C 279.265625 198.378906 279.394531 197.332031 279.394531 196.25 C 279.394531 183.90625 277.503906 171.992188 274.082031 160.742188 Z M 132.8125 214.492188 C 129.390625 225.742188 127.5 237.65625 127.5 250 C 127.5 262.34375 129.390625 274.257812 132.8125 285.507812 C 111.824219 279.898438 93.855469 267.171875 81.601562 250 C 93.855469 232.828125 111.824219 220.101562 132.8125 214.492188 Z M 367.1875 214.492188 C 388.175781 220.101562 406.144531 232.828125 418.398438 250 C 406.144531 267.171875 388.175781 279.898438 367.1875 285.507812 C 370.609375 274.257812 372.5 262.34375 372.5 250 C 372.5 237.65625 370.609375 225.742188 367.1875 214.492188 Z M 160.703125 226.054688 C 169.597656 235.550781 179.894531 243.703125 191.386719 250 C 179.894531 256.296875 169.597656 264.449219 160.703125 273.945312 C 158.671875 266.300781 157.5 258.300781 157.5 250 C 157.5 241.699219 158.671875 233.699219 160.703125 226.054688 Z M 339.296875 226.054688 C 341.328125 233.699219 342.5 241.699219 342.5 250 C 342.5 258.300781 341.328125 266.300781 339.296875 273.945312 C 330.402344 264.449219 320.105469 256.296875 308.613281 250 C 320.105469 243.703125 330.402344 235.550781 339.296875 226.054688 Z M 67.597656 279.804688 C 85.148438 298.546875 108.453125 311.777344 134.6875 316.621094 C 130.125 329.429688 127.5 343.15625 127.5 357.5 C 127.5 369.84375 129.390625 381.757812 132.8125 393.007812 C 93.328125 382.453125 64.394531 346.664062 64.394531 303.75 C 64.394531 295.449219 65.566406 287.449219 67.597656 279.804688 Z M 432.402344 279.804688 C 434.433594 287.449219 435.605469 295.449219 435.605469 303.75 C 435.605469 346.664062 406.671875 382.453125 367.1875 393.007812 C 370.609375 381.757812 372.5 369.84375 372.5 357.5 C 372.5 343.15625 369.875 329.429688 365.3125 316.621094 C 391.546875 311.777344 414.851562 298.546875 432.402344 279.804688 Z M 220.761719 300.546875 C 220.734375 301.621094 220.605469 302.667969 220.605469 303.75 C 220.605469 316.09375 222.496094 328.007812 225.917969 339.257812 C 210.015625 335.007812 195.800781 326.738281 184.53125 315.46875 C 197.519531 312.449219 209.707031 307.347656 220.761719 300.546875 Z M 279.238281 300.546875 C 290.292969 307.347656 302.480469 312.449219 315.46875 315.46875 C 304.199219 326.738281 289.984375 335.007812 274.082031 339.257812 C 277.503906 328.007812 279.394531 316.09375 279.394531 303.75 C 279.394531 302.667969 279.265625 301.621094 279.238281 300.546875 Z M 160.703125 333.554688 C 177.03125 350.992188 198.34375 363.636719 222.363281 369.21875 C 207.609375 383.972656 187.871094 393.710938 165.820312 395.800781 C 160.527344 384.128906 157.5 371.199219 157.5 357.5 C 157.5 349.199219 158.671875 341.199219 160.703125 333.554688 Z M 339.296875 333.554688 C 341.328125 341.199219 342.5 349.199219 342.5 357.5 C 342.5 371.199219 339.472656 384.128906 334.179688 395.800781 C 312.128906 393.710938 292.390625 383.972656 277.636719 369.21875 C 301.65625 363.636719 322.96875 350.992188 339.296875 333.554688 Z M 250 383.105469 C 266.746094 402.71875 289.546875 416.941406 315.46875 422.96875 C 298.75 439.6875 275.632812 450 250 450 C 224.367188 450 201.25 439.6875 184.53125 422.96875 C 210.453125 416.941406 233.253906 402.71875 250 383.105469 Z M 250 383.105469 "/>
</g>
</svg>
