<svg version="1.1" id="Layer_1" xmlns="http://www.w3.org/2000/svg" xmlns:xlink="http://www.w3.org/1999/xlink" x="0px" y="0px"
	 width="100%" viewBox="0 0 3508 2480" enable-background="new 0 0 3508 2480" xml:space="preserve">
<path fill="#FFFFFF" opacity="1.000000" stroke="none" 
	d="
M2420.000000,2482.000000 
	C1613.333496,2482.000000 807.666931,2482.000000 2.000324,2482.000000 
	C2.000216,1655.333618 2.000216,828.667236 2.000108,2.000657 
	C1171.332886,2.000438 2340.665771,2.000438 3509.999023,2.000219 
	C3509.999268,828.666016 3509.999268,1655.332031 3509.999512,2481.999023 
	C3147.000000,2482.000000 2784.000000,2482.000000 2420.000000,2482.000000 
M1884.865723,1619.396362 
	C1892.806030,1618.813354 1900.741699,1618.156738 1908.687500,1617.661255 
	C1930.889771,1616.276611 1953.121338,1615.278564 1975.292847,1613.516602 
	C1994.125366,1612.020020 2012.945190,1610.085449 2031.672363,1607.603882 
	C2059.599609,1603.902954 2087.557861,1600.213501 2115.291748,1595.321411 
	C2157.859619,1587.812500 2199.710938,1577.291504 2240.142334,1561.693481 
	C2289.212402,1542.762695 2334.876221,1517.984131 2374.994141,1483.551758 
	C2401.116699,1461.131104 2424.703369,1436.602783 2443.274414,1407.343140 
	C2467.493164,1369.184326 2479.395996,1327.367798 2479.182617,1282.607422 
	C2478.729980,1187.666138 2481.523193,1092.702393 2477.618164,997.783264 
	C2477.209229,987.839905 2476.673340,977.878296 2475.596680,967.990417 
	C2472.278809,937.523254 2465.223145,907.860779 2455.965820,878.671204 
	C2446.376465,848.434753 2434.006592,819.428894 2418.318848,791.856323 
	C2405.139893,768.693359 2390.413818,746.588806 2372.844238,726.483154 
	C2366.501953,719.225220 2359.975586,712.125610 2353.449951,705.030212 
	C2343.327637,694.024231 2342.626709,686.525024 2350.263916,673.791870 
	C2357.618652,661.529785 2364.802490,649.163818 2371.950684,636.779541 
	C2392.733154,600.772827 2413.385498,564.690552 2434.229980,528.719910 
	C2454.737061,493.332397 2475.519531,458.104370 2495.932373,422.663147 
	C2499.898682,415.776825 2503.497314,408.478546 2505.900635,400.935364 
	C2510.315186,387.080322 2507.666504,374.818665 2495.663330,365.214722 
	C2486.050049,357.523071 2472.333740,356.460938 2460.010010,362.348358 
	C2451.626465,366.353485 2446.782227,373.507812 2442.364746,380.824219 
	C2431.708496,398.472626 2421.684570,416.502228 2411.369385,434.357178 
	C2395.897461,461.138184 2380.376221,487.890869 2364.909668,514.675049 
	C2350.608398,539.440918 2336.356201,564.235168 2322.072510,589.011230 
	C2313.600098,603.707642 2305.304932,618.511353 2296.552979,633.039612 
	C2291.160156,641.991760 2284.171631,643.363281 2275.839844,637.041260 
	C2255.856934,621.878418 2233.977051,610.064453 2211.480225,599.190247 
	C2170.001709,579.141113 2126.841064,563.789246 2082.205078,552.575317 
	C2026.648193,538.617859 1969.928467,532.613525 1912.953857,528.746887 
	C1893.391235,527.419250 1873.748779,526.961548 1854.136475,526.780640 
	C1841.201416,526.661316 1828.253418,528.232666 1815.314087,528.189575 
	C1787.995850,528.098694 1760.929688,530.813538 1733.926880,534.468750 
	C1713.885620,537.181519 1693.734741,539.375671 1673.880493,543.116333 
	C1633.056885,550.807922 1592.765625,560.702820 1553.839844,575.567139 
	C1519.252930,588.774658 1485.762817,604.157104 1454.830933,624.710388 
	C1448.181030,629.129028 1441.692017,633.811096 1434.867798,637.940125 
	C1426.554932,642.969849 1420.757202,641.534973 1415.277466,633.722717 
	C1414.321045,632.359375 1413.257202,631.057007 1412.432983,629.617737 
	C1398.712769,605.662537 1385.045776,581.676880 1371.319336,557.725220 
	C1359.247559,536.660889 1347.102295,515.638672 1335.016602,494.582306 
	C1321.109375,470.352112 1307.302734,446.063782 1293.314819,421.880371 
	C1284.825806,407.203735 1276.647217,392.298065 1267.270630,378.199249 
	C1259.099976,365.913391 1248.521606,356.242462 1231.852051,358.523560 
	C1217.783936,360.448669 1203.884644,370.859650 1204.167358,387.380310 
	C1204.325073,396.599335 1205.575562,405.234131 1210.169067,413.276489 
	C1224.850220,438.979523 1239.446167,464.731445 1254.210938,490.386292 
	C1267.315308,513.156067 1280.608521,535.817078 1293.804199,558.534302 
	C1307.500244,582.113098 1321.188965,605.696228 1334.862427,629.288208 
	C1343.367676,643.963013 1351.969971,658.583801 1360.285522,673.365662 
	C1367.539551,686.260315 1363.277588,697.294189 1355.006714,707.049805 
	C1339.989258,724.763367 1325.509033,742.993469 1311.779785,761.722778 
	C1294.605225,785.152405 1281.378662,810.967590 1269.994873,837.634888 
	C1264.265259,851.056946 1259.244873,864.838196 1254.821655,878.748840 
	C1246.966309,903.453552 1240.808472,928.611572 1238.030273,954.461548 
	C1236.046753,972.915894 1232.920410,991.392273 1232.789917,1009.876343 
	C1232.175537,1096.870239 1232.443604,1183.870239 1232.337524,1270.868042 
	C1232.315918,1288.506104 1233.491943,1305.963135 1236.064819,1323.484985 
	C1240.792236,1355.679077 1252.565186,1384.949951 1269.651978,1412.308594 
	C1288.922363,1443.163452 1314.525391,1468.265625 1342.887817,1490.503784 
	C1369.104004,1511.058838 1397.445679,1528.581909 1427.507446,1542.939453 
	C1455.730347,1556.418701 1484.979248,1567.453979 1515.092285,1576.158936 
	C1553.744507,1587.331909 1593.102661,1595.130005 1632.773315,1601.487549 
	C1649.784912,1604.213745 1666.823364,1606.834351 1683.915283,1608.979248 
	C1699.051025,1610.878906 1714.266724,1612.179810 1729.468140,1613.504150 
	C1740.382202,1614.455322 1751.327637,1615.058838 1762.264526,1615.729736 
	C1782.807861,1616.989990 1803.340942,1618.643311 1823.904663,1619.278442 
	C1843.552002,1619.885132 1863.233032,1619.404541 1884.865723,1619.396362 
M2309.762939,1796.617554 
	C2302.607666,1798.023560 2295.320312,1798.960083 2288.322998,1800.927490 
	C2270.576904,1805.916992 2253.627197,1812.553589 2240.828125,1826.773682 
	C2235.924561,1832.221680 2235.247070,1834.440063 2239.874512,1839.556641 
	C2245.655518,1845.949219 2251.877930,1852.047607 2258.531250,1857.517456 
	C2265.249023,1863.040283 2266.091309,1862.994507 2273.285645,1857.638916 
	C2284.492188,1849.296631 2296.865967,1843.964355 2310.630127,1842.302246 
	C2329.365479,1840.040039 2347.189697,1841.335693 2360.928955,1856.953979 
	C2367.094482,1863.962524 2367.944092,1871.424316 2364.741455,1881.212769 
	C2352.488770,1881.653687 2340.261230,1882.238647 2328.026367,1882.500732 
	C2308.629150,1882.916260 2289.681396,1885.957642 2271.440918,1892.533081 
	C2245.420898,1901.913086 2226.118896,1918.129883 2221.476318,1946.864746 
	C2217.667480,1970.436401 2224.164551,1990.802124 2243.447754,2006.295410 
	C2255.995850,2016.377441 2270.243652,2021.543091 2286.035889,2024.003662 
	C2313.937744,2028.350586 2338.751221,2022.502075 2360.329102,2003.958374 
	C2361.500000,2002.951904 2363.045410,2002.381348 2364.050049,2001.814453 
	C2369.212891,2003.935791 2368.230469,2007.982544 2368.558105,2011.488525 
	C2369.037842,2016.622681 2371.932129,2019.405762 2377.003418,2019.458740 
	C2388.991455,2019.584229 2400.987305,2019.711548 2412.968994,2019.407593 
	C2418.720703,2019.261719 2420.958496,2016.470947 2421.452148,2010.493896 
	C2421.588867,2008.839111 2421.502930,2007.165039 2421.502686,2005.499878 
	C2421.495605,1965.200439 2421.604492,1924.900269 2421.376221,1884.602051 
	C2421.331299,1876.685303 2420.588623,1868.659180 2419.092529,1860.890625 
	C2416.826660,1849.123413 2413.357178,1837.539429 2405.849365,1827.900635 
	C2393.474854,1812.013428 2376.870361,1802.021484 2357.285645,1798.914917 
	C2342.315674,1796.540283 2326.857178,1797.244629 2309.762939,1796.617554 
M2691.940186,1849.008667 
	C2685.269287,1827.085815 2671.635498,1811.322632 2650.606201,1801.979370 
	C2637.731445,1796.259155 2624.160400,1796.161499 2610.478027,1796.462646 
	C2592.466309,1796.859253 2576.566895,1802.166016 2563.975098,1815.694092 
	C2561.635010,1818.207886 2558.801025,1820.261719 2554.570557,1823.940552 
	C2554.005127,1818.792358 2553.597412,1816.001343 2553.409424,1813.195679 
	C2552.861328,1805.017456 2549.385254,1801.046143 2541.082764,1800.770264 
	C2529.772217,1800.394287 2518.434082,1800.460571 2507.118896,1800.758179 
	C2500.708008,1800.926758 2497.029785,1805.063232 2496.533691,1811.591309 
	C2496.382812,1813.579102 2496.472412,1815.585938 2496.472412,1817.584106 
	C2496.470215,1879.862061 2496.469727,1942.140015 2496.474121,2004.417969 
	C2496.474121,2006.749023 2496.393066,2009.089722 2496.571289,2011.409058 
	C2496.964355,2016.515747 2499.845703,2019.405518 2504.932373,2019.451416 
	C2518.918213,2019.577148 2532.910156,2019.682495 2546.891357,2019.396729 
	C2552.684814,2019.278320 2554.931152,2016.520264 2555.384033,2010.522339 
	C2555.584229,2007.872070 2555.456787,2005.196289 2555.458008,2002.532104 
	C2555.473389,1968.229248 2555.324219,1933.925415 2555.569824,1899.624146 
	C2555.682861,1883.822388 2560.060791,1869.970215 2572.858154,1858.929688 
	C2595.072266,1839.765015 2627.981445,1848.951782 2634.271484,1877.348633 
	C2636.973877,1889.548340 2638.002441,1902.298340 2638.241211,1914.828003 
	C2638.800049,1944.124634 2638.419922,1973.439209 2638.425293,2002.746460 
	C2638.425781,2005.410522 2638.296387,2008.089111 2638.521729,2010.735840 
	C2639.026855,2016.667847 2641.312256,2019.313599 2647.211182,2019.427856 
	C2660.860352,2019.692017 2674.518555,2019.419922 2688.171631,2019.550781 
	C2693.084473,2019.597778 2695.682861,2016.927246 2696.637207,2012.701172 
	C2697.358154,2009.509766 2697.299072,2006.104858 2697.302734,2002.794800 
	C2697.343262,1965.827637 2697.754395,1928.853149 2697.110107,1891.897217 
	C2696.869141,1878.077393 2694.134521,1864.301025 2691.940186,1849.008667 
M901.272095,1838.430908 
	C898.605896,1838.424438 895.931396,1838.553223 893.275024,1838.388550 
	C881.524658,1837.660522 879.479492,1835.537231 879.464233,1823.911621 
	C879.430115,1797.916138 879.451538,1771.920776 879.457947,1745.925293 
	C879.458435,1743.926270 879.446594,1741.922729 879.566895,1739.929077 
	C879.802185,1736.030273 881.869141,1733.758301 885.812439,1733.503052 
	C888.469238,1733.331177 891.141785,1733.372559 893.807312,1733.372070 
	C937.133057,1733.365112 980.458862,1733.367920 1023.784607,1733.364136 
	C1026.450562,1733.363892 1029.132690,1733.508179 1031.779297,1733.271484 
	C1037.285156,1732.779297 1041.290283,1730.288452 1042.186890,1724.380249 
	C1042.682007,1721.117432 1043.324097,1717.812866 1043.257812,1714.540283 
	C1043.000977,1701.883179 1039.642456,1698.596313 1027.257446,1698.591797 
	C971.600525,1698.571533 915.943604,1698.576538 860.286682,1698.583862 
	C846.106201,1698.585693 843.776489,1700.784058 842.726990,1715.073486 
	C842.629578,1716.400024 842.690369,1717.738770 842.690308,1719.071777 
	C842.689148,1813.055298 842.541565,1907.039429 842.817261,2001.022095 
	C842.870605,2019.194946 845.475342,2021.317749 862.927063,2021.329102 
	C918.917297,2021.365479 974.907471,2021.342651 1030.897705,2021.341187 
	C1032.897339,2021.341064 1034.906494,2021.447754 1036.894775,2021.292725 
	C1045.725708,2020.603394 1049.286255,2016.861450 1049.477905,2008.059692 
	C1049.557739,2004.395874 1049.684082,2000.711792 1049.404785,1997.066284 
	C1048.957031,1991.223267 1045.064575,1987.286621 1039.303223,1986.719116 
	C1036.661133,1986.458862 1033.975098,1986.628906 1031.309082,1986.628662 
	C984.650574,1986.625000 937.992004,1986.649414 891.333496,1986.607178 
	C880.208008,1986.597168 879.490845,1985.861084 879.472107,1974.580566 
	C879.421753,1944.252563 879.455933,1913.924438 879.458557,1883.596436 
	C879.458618,1882.263428 879.399658,1880.924194 879.502258,1879.598267 
	C879.986633,1873.334717 881.200439,1872.001343 887.222168,1871.517578 
	C889.872314,1871.304565 892.551575,1871.439819 895.217590,1871.439575 
	C935.543884,1871.435791 975.870117,1871.437988 1016.196411,1871.429077 
	C1018.861450,1871.428467 1021.764893,1871.996948 1024.127075,1871.129272 
	C1026.688477,1870.188232 1030.126587,1868.264404 1030.742920,1866.080688 
	C1032.144409,1861.115234 1033.040405,1855.595947 1032.364014,1850.539551 
	C1030.868042,1839.355591 1029.411011,1838.474243 1018.190857,1838.460205 
	C979.864319,1838.412231 941.537598,1838.435791 901.272095,1838.430908 
M2819.078125,1738.674072 
	C2815.414307,1738.675049 2811.749512,1738.625610 2808.086670,1738.686279 
	C2795.938232,1738.887329 2792.656006,1742.115967 2792.609863,1753.988403 
	C2792.564697,1765.645874 2792.655762,1777.303955 2792.572021,1788.960938 
	C2792.495605,1799.575684 2791.589844,1800.489258 2781.325684,1800.619995 
	C2774.332031,1800.709229 2767.331543,1800.482300 2760.343750,1800.702148 
	C2752.476318,1800.949707 2748.854004,1804.536255 2748.673096,1812.453735 
	C2748.452393,1822.107666 2748.459229,1831.774292 2748.674316,1841.428589 
	C2748.844482,1849.055908 2751.204102,1851.268799 2759.066650,1851.510376 
	C2765.722168,1851.715088 2772.390625,1851.473511 2779.049072,1851.623047 
	C2790.148926,1851.872192 2792.558838,1854.268555 2792.576904,1865.197266 
	C2792.625000,1894.507690 2792.049316,1923.832886 2792.850830,1953.121338 
	C2793.173096,1964.903076 2795.439697,1976.883545 2798.615234,1988.273682 
	C2802.944336,2003.801758 2812.936035,2014.658203 2828.870850,2020.138794 
	C2845.990234,2026.026489 2863.363037,2026.260132 2880.930908,2024.624146 
	C2887.802979,2023.984375 2894.657471,2022.388062 2901.320801,2020.518188 
	C2906.977051,2018.930908 2909.905518,2014.931030 2909.669922,2008.541626 
	C2909.326416,1999.228394 2909.690674,1989.891479 2909.561035,1980.567261 
	C2909.425049,1970.810913 2907.676514,1969.754883 2898.179688,1971.458496 
	C2890.384033,1972.856934 2882.442383,1974.254761 2874.572510,1974.216431 
	C2864.822021,1974.168945 2855.909912,1966.912231 2853.933105,1958.286255 
	C2852.607666,1952.503296 2851.694824,1946.493896 2851.635010,1940.575317 
	C2851.383301,1915.597412 2851.492188,1890.615479 2851.529541,1865.635010 
	C2851.546143,1854.532471 2853.520752,1852.470825 2864.747559,1851.654663 
	C2867.398926,1851.461914 2870.074463,1851.600586 2872.739014,1851.596191 
	C2881.731934,1851.581421 2890.729736,1851.748047 2899.716309,1851.502930 
	C2906.871094,1851.307739 2909.353271,1848.908936 2909.513184,1841.828003 
	C2909.754150,1831.175415 2909.450928,1820.511475 2909.605957,1809.855591 
	C2909.677246,1804.944336 2907.028320,1802.417603 2902.806152,1801.339111 
	C2900.276367,1800.692871 2897.542480,1800.690918 2894.898438,1800.674072 
	C2883.907471,1800.604248 2872.914795,1800.737183 2861.925049,1800.604614 
	C2852.762207,1800.494263 2851.647461,1799.372925 2851.552490,1790.138794 
	C2851.425781,1777.816406 2851.564209,1765.491333 2851.486572,1753.168091 
	C2851.423584,1743.149902 2848.914795,1740.026367 2838.979248,1738.942261 
	C2833.050781,1738.295410 2827.004395,1738.728394 2819.078125,1738.674072 
M1499.079590,1824.222412 
	C1499.468262,1822.948975 1499.899414,1821.686890 1500.238647,1820.400391 
	C1502.348633,1812.400513 1500.082031,1809.079224 1492.020874,1808.607788 
	C1488.699341,1808.413452 1485.357666,1808.537720 1482.025269,1808.561035 
	C1471.385376,1808.635132 1469.601440,1809.620605 1465.761108,1819.533691 
	C1447.512207,1866.640625 1429.384399,1913.794678 1411.224243,1960.936157 
	C1410.057861,1963.963867 1409.738281,1968.409668 1405.567383,1967.958252 
	C1403.470459,1967.731201 1400.890747,1964.602417 1399.944336,1962.223022 
	C1387.662476,1931.346802 1375.622803,1900.374146 1363.548584,1869.415283 
	C1357.269409,1853.315308 1351.097656,1837.173462 1344.773438,1821.091187 
	C1340.290405,1809.690918 1338.563599,1808.595703 1326.395630,1808.556763 
	C1323.396362,1808.547241 1320.394897,1808.486206 1317.398438,1808.578857 
	C1307.489258,1808.884766 1304.866211,1812.442993 1308.353271,1821.909668 
	C1312.026733,1831.881958 1316.345337,1841.615845 1320.331421,1851.474365 
	C1331.168945,1878.278320 1341.982178,1905.092163 1352.800293,1931.903931 
	C1361.505371,1953.478638 1370.022217,1975.131592 1378.953125,1996.612427 
	C1389.052246,2020.902466 1388.922852,2015.534790 1380.221313,2037.944458 
	C1374.929565,2051.572510 1369.589478,2065.238770 1363.210938,2078.372803 
	C1356.113037,2092.988525 1344.307495,2098.695557 1329.905396,2096.130859 
	C1312.584717,2093.046143 1311.710571,2093.628174 1308.946899,2110.088867 
	C1307.574585,2118.262207 1310.170166,2123.293945 1318.208496,2124.991943 
	C1325.609619,2126.554932 1333.329834,2127.411133 1340.886353,2127.276367 
	C1359.286987,2126.948975 1374.364380,2119.179199 1385.116211,2104.222412 
	C1389.715942,2097.823730 1393.432861,2090.636230 1396.588989,2083.388672 
	C1401.760010,2071.513184 1406.121338,2059.286377 1410.866211,2047.224243 
	C1426.437012,2007.640991 1441.985474,1968.048950 1457.622070,1928.491699 
	C1471.182983,1894.185303 1484.852051,1859.921875 1499.079590,1824.222412 
M1204.497314,1857.390503 
	C1188.161255,1879.152344 1171.774658,1900.876343 1155.503174,1922.686401 
	C1138.436157,1945.562622 1121.446533,1968.496826 1104.520264,1991.477295 
	C1102.567017,1994.129395 1100.600830,1997.061035 1099.726685,2000.168579 
	C1096.081787,2013.126709 1099.065430,2021.625854 1113.987915,2021.340942 
	C1114.320923,2021.334595 1114.654297,2021.341064 1114.987427,2021.341064 
	C1160.303223,2021.340942 1205.618896,2021.366699 1250.934570,2021.287720 
	C1254.210571,2021.281982 1257.578247,2020.866699 1260.742065,2020.031494 
	C1268.113892,2018.085571 1271.662476,2012.528931 1271.272949,2004.267334 
	C1270.857422,1995.455078 1267.742798,1991.696045 1259.102661,1990.377441 
	C1253.551514,1989.530029 1247.918579,1988.800171 1242.317749,1988.766602 
	C1214.995972,1988.602783 1187.672729,1988.723999 1160.350220,1988.647949 
	C1156.953003,1988.638550 1153.557373,1988.056030 1148.358032,1987.570801 
	C1151.187622,1983.072144 1152.727783,1980.228149 1154.634277,1977.655518 
	C1167.672119,1960.061157 1180.807007,1942.538818 1193.871704,1924.964233 
	C1211.894897,1900.719604 1229.926636,1876.481079 1247.861206,1852.170898 
	C1253.174316,1844.969116 1258.963501,1837.955322 1263.135010,1830.111084 
	C1269.962891,1817.271729 1264.299805,1808.579712 1249.905518,1808.567261 
	C1206.922241,1808.529907 1163.938843,1808.544312 1120.955566,1808.557617 
	C1105.041504,1808.562500 1104.180786,1809.482544 1104.490845,1825.691772 
	C1104.686401,1835.920166 1108.043213,1839.377563 1118.340088,1839.435425 
	C1135.999390,1839.534668 1153.659546,1839.468384 1171.319336,1839.471558 
	C1182.648315,1839.473511 1193.977295,1839.441284 1205.306030,1839.496704 
	C1208.936035,1839.514404 1212.899902,1839.142822 1214.064819,1844.590332 
	C1211.322754,1848.333862 1208.395630,1852.330200 1204.497314,1857.390503 
M2024.019165,1952.245361 
	C2022.598877,1947.134766 2020.283691,1942.086304 2019.924316,1936.902222 
	C2018.799805,1920.677979 2018.039429,1904.407715 2017.827148,1888.146240 
	C2017.496582,1862.820312 2017.787720,1837.486694 2017.698853,1812.156860 
	C2017.667603,1803.241943 2015.517212,1800.452271 2007.972900,1800.310547 
	C1993.979492,1800.047607 1979.975098,1800.067505 1965.980713,1800.299927 
	C1959.044189,1800.415161 1956.694336,1803.111450 1956.289062,1810.182617 
	C1956.136597,1812.840698 1956.235840,1815.513916 1956.235596,1818.180176 
	C1956.233398,1855.175659 1956.076904,1892.172241 1956.328369,1929.166016 
	C1956.404785,1940.423218 1956.758545,1951.805908 1958.494995,1962.894531 
	C1961.065796,1979.311279 1968.094604,1994.259399 1979.898926,2005.993530 
	C1995.277588,2021.280884 2015.268555,2027.028564 2036.236694,2027.388916 
	C2056.537109,2027.738037 2075.721191,2022.715332 2090.964844,2007.724609 
	C2092.856934,2005.864014 2095.515381,2004.782715 2098.665283,2002.810181 
	C2099.458008,2005.954468 2100.001709,2007.462524 2100.203369,2009.014893 
	C2101.471924,2018.774780 2104.474121,2021.602539 2114.280029,2021.689697 
	C2125.277832,2021.787231 2136.281494,2021.524780 2147.273926,2021.786011 
	C2152.202637,2021.903076 2156.095215,2020.049072 2158.027832,2015.999878 
	C2159.504395,2012.906494 2159.646729,2008.972412 2159.651855,2005.411133 
	C2159.739990,1942.418945 2159.716309,1879.426636 2159.714355,1816.434326 
	C2159.714355,1814.434692 2159.864990,1812.414185 2159.635742,1810.439331 
	C2158.987061,1804.853638 2154.856934,1800.447876 2149.183105,1800.336792 
	C2135.190430,1800.062744 2121.185547,1800.073608 2107.192139,1800.328125 
	C2101.337158,1800.434692 2098.832275,1803.177612 2098.312744,1808.925415 
	C2098.043701,1811.902344 2098.277588,1814.921631 2098.200195,1817.919556 
	C2097.253662,1854.503052 2100.130127,1891.138428 2096.416748,1927.695557 
	C2095.200195,1939.672119 2091.909424,1950.098633 2082.856934,1958.789795 
	C2064.816162,1976.111084 2038.724609,1974.067139 2024.019165,1952.245361 
M1773.810669,1699.040771 
	C1750.300537,1691.539062 1726.454468,1688.013550 1701.573730,1689.698608 
	C1689.869629,1690.491211 1678.346924,1691.823486 1667.257080,1694.856323 
	C1619.783813,1707.839478 1583.263306,1735.348145 1560.110718,1779.211670 
	C1548.174561,1801.825439 1542.020508,1826.292969 1542.313599,1851.898193 
	C1542.464600,1865.075684 1543.961426,1878.374512 1546.279053,1891.363403 
	C1552.042603,1923.666870 1567.444824,1951.350708 1590.159302,1974.673096 
	C1602.484009,1987.327759 1617.638062,1996.757080 1633.515137,2004.421631 
	C1657.718750,2016.105469 1683.307495,2022.173218 1710.441406,2022.033936 
	C1770.104492,2021.727783 1829.770386,2021.946655 1889.435059,2021.948608 
	C1892.434814,2021.948730 1895.445557,2022.082275 1898.432251,2021.878296 
	C1904.825195,2021.441162 1907.670166,2018.947998 1907.815796,2012.700195 
	C1908.087646,2001.040283 1907.811890,1989.368774 1907.944702,1977.704102 
	C1908.002563,1972.616089 1905.435669,1969.390747 1901.051392,1967.816650 
	C1898.011353,1966.725220 1894.613892,1966.213867 1891.368652,1966.180298 
	C1875.704224,1966.017700 1860.036621,1966.155151 1844.371094,1966.055908 
	C1841.640991,1966.038452 1838.914795,1965.396729 1834.062500,1964.768188 
	C1837.182495,1960.755493 1838.756104,1958.371704 1840.686768,1956.324707 
	C1844.510132,1952.271240 1848.739868,1948.589355 1852.432983,1944.426758 
	C1866.384155,1928.701050 1874.857910,1910.176270 1880.301392,1890.013428 
	C1885.067627,1872.359497 1884.690796,1854.350220 1883.526611,1836.516235 
	C1882.758667,1824.751343 1880.365479,1812.679565 1876.308105,1801.622925 
	C1865.751709,1772.855713 1850.011963,1747.424927 1825.250977,1728.172485 
	C1809.875610,1716.217896 1793.321533,1706.708618 1773.810669,1699.040771 
z"/>
<path fill="#76B9FE" opacity="1.000000" stroke="none" 
	d="
M1883.882446,1619.399170 
	C1863.233032,1619.404541 1843.552002,1619.885132 1823.904663,1619.278442 
	C1803.340942,1618.643311 1782.807861,1616.989990 1762.264526,1615.729736 
	C1751.327637,1615.058838 1740.382202,1614.455322 1729.468140,1613.504150 
	C1714.266724,1612.179810 1699.051025,1610.878906 1683.915283,1608.979248 
	C1666.823364,1606.834351 1649.784912,1604.213745 1632.773315,1601.487549 
	C1593.102661,1595.130005 1553.744507,1587.331909 1515.092285,1576.158936 
	C1484.979248,1567.453979 1455.730347,1556.418701 1427.507446,1542.939453 
	C1397.445679,1528.581909 1369.104004,1511.058838 1342.887817,1490.503784 
	C1314.525391,1468.265625 1288.922363,1443.163452 1269.651978,1412.308594 
	C1252.565186,1384.949951 1240.792236,1355.679077 1236.064819,1323.484985 
	C1233.491943,1305.963135 1232.315918,1288.506104 1232.337524,1270.868042 
	C1232.443604,1183.870239 1232.175537,1096.870239 1232.789917,1009.876343 
	C1232.920410,991.392273 1236.046753,972.915894 1238.030273,954.461548 
	C1240.808472,928.611572 1246.966309,903.453552 1254.821655,878.748840 
	C1259.244873,864.838196 1264.265259,851.056946 1269.994873,837.634888 
	C1281.378662,810.967590 1294.605225,785.152405 1311.779785,761.722778 
	C1325.509033,742.993469 1339.989258,724.763367 1355.006714,707.049805 
	C1363.277588,697.294189 1367.539551,686.260315 1360.285522,673.365662 
	C1351.969971,658.583801 1343.367676,643.963013 1334.862427,629.288208 
	C1321.188965,605.696228 1307.500244,582.113098 1293.804199,558.534302 
	C1280.608521,535.817078 1267.315308,513.156067 1254.210938,490.386292 
	C1239.446167,464.731445 1224.850220,438.979523 1210.169067,413.276489 
	C1205.575562,405.234131 1204.325073,396.599335 1204.167358,387.380310 
	C1203.884644,370.859650 1217.783936,360.448669 1231.852051,358.523560 
	C1248.521606,356.242462 1259.099976,365.913391 1267.270630,378.199249 
	C1276.647217,392.298065 1284.825806,407.203735 1293.314819,421.880371 
	C1307.302734,446.063782 1321.109375,470.352112 1335.016602,494.582306 
	C1347.102295,515.638672 1359.247559,536.660889 1371.319336,557.725220 
	C1385.045776,581.676880 1398.712769,605.662537 1412.432983,629.617737 
	C1413.257202,631.057007 1414.321045,632.359375 1415.277466,633.722717 
	C1420.757202,641.534973 1426.554932,642.969849 1434.867798,637.940125 
	C1441.692017,633.811096 1448.181030,629.129028 1454.830933,624.710388 
	C1485.762817,604.157104 1519.252930,588.774658 1553.839844,575.567139 
	C1592.765625,560.702820 1633.056885,550.807922 1673.880493,543.116333 
	C1693.734741,539.375671 1713.885620,537.181519 1733.926880,534.468750 
	C1760.929688,530.813538 1787.995850,528.098694 1815.314087,528.189575 
	C1828.253418,528.232666 1841.201416,526.661316 1854.136475,526.780640 
	C1873.748779,526.961548 1893.391235,527.419250 1912.953857,528.746887 
	C1969.928467,532.613525 2026.648193,538.617859 2082.205078,552.575317 
	C2126.841064,563.789246 2170.001709,579.141113 2211.480225,599.190247 
	C2233.977051,610.064453 2255.856934,621.878418 2275.839844,637.041260 
	C2284.171631,643.363281 2291.160156,641.991760 2296.552979,633.039612 
	C2305.304932,618.511353 2313.600098,603.707642 2322.072510,589.011230 
	C2336.356201,564.235168 2350.608398,539.440918 2364.909668,514.675049 
	C2380.376221,487.890869 2395.897461,461.138184 2411.369385,434.357178 
	C2421.684570,416.502228 2431.708496,398.472626 2442.364746,380.824219 
	C2446.782227,373.507812 2451.626465,366.353485 2460.010010,362.348358 
	C2472.333740,356.460938 2486.050049,357.523071 2495.663330,365.214722 
	C2507.666504,374.818665 2510.315186,387.080322 2505.900635,400.935364 
	C2503.497314,408.478546 2499.898682,415.776825 2495.932373,422.663147 
	C2475.519531,458.104370 2454.737061,493.332397 2434.229980,528.719910 
	C2413.385498,564.690552 2392.733154,600.772827 2371.950684,636.779541 
	C2364.802490,649.163818 2357.618652,661.529785 2350.263916,673.791870 
	C2342.626709,686.525024 2343.327637,694.024231 2353.449951,705.030212 
	C2359.975586,712.125610 2366.501953,719.225220 2372.844238,726.483154 
	C2390.413818,746.588806 2405.139893,768.693359 2418.318848,791.856323 
	C2434.006592,819.428894 2446.376465,848.434753 2455.965820,878.671204 
	C2465.223145,907.860779 2472.278809,937.523254 2475.596680,967.990417 
	C2476.673340,977.878296 2477.209229,987.839905 2477.618164,997.783264 
	C2481.523193,1092.702393 2478.729980,1187.666138 2479.182617,1282.607422 
	C2479.395996,1327.367798 2467.493164,1369.184326 2443.274414,1407.343140 
	C2424.703369,1436.602783 2401.116699,1461.131104 2374.994141,1483.551758 
	C2334.876221,1517.984131 2289.212402,1542.762695 2240.142334,1561.693481 
	C2199.710938,1577.291504 2157.859619,1587.812500 2115.291748,1595.321411 
	C2087.557861,1600.213501 2059.599609,1603.902954 2031.672363,1607.603882 
	C2012.945190,1610.085449 1994.125366,1612.020020 1975.292847,1613.516602 
	C1953.121338,1615.278564 1930.889771,1616.276611 1908.687500,1617.661255 
	C1900.741699,1618.156738 1892.806030,1618.813354 1883.882446,1619.399170 
M2316.083984,759.029541 
	C2295.466064,737.748718 2275.012695,716.283752 2251.152100,698.489563 
	C2221.132812,676.102783 2188.561768,658.264587 2154.078369,643.735474 
	C2119.615234,629.214844 2083.903809,618.830444 2047.275879,611.803711 
	C2022.223022,606.997498 1996.951904,603.190125 1971.663086,599.795715 
	C1951.956543,597.150574 1932.088745,594.429749 1912.263672,594.195740 
	C1862.377563,593.606934 1812.401489,591.338196 1762.653320,597.658020 
	C1734.696411,601.209534 1706.477417,603.296875 1678.809570,608.394592 
	C1625.325684,618.248779 1573.612061,633.912109 1524.963135,659.077881 
	C1472.917847,686.000610 1427.234619,720.653564 1389.151367,765.339294 
	C1364.328369,794.465759 1344.688843,826.640991 1329.825439,861.836975 
	C1309.803467,909.248047 1299.118164,959.021790 1298.338989,1010.111328 
	C1296.900635,1104.418091 1297.813354,1198.761841 1297.909180,1293.089844 
	C1297.926270,1309.861450 1301.952026,1325.972900 1307.650146,1341.693604 
	C1313.722168,1358.445557 1323.070679,1373.313721 1333.530273,1387.592285 
	C1348.146606,1407.545044 1365.365112,1424.965576 1384.547119,1440.499756 
	C1410.357422,1461.401855 1439.232788,1476.959229 1469.594116,1490.171143 
	C1513.715576,1509.371216 1559.608521,1522.703491 1606.667480,1531.985962 
	C1643.125000,1539.177124 1679.930176,1544.310913 1717.099365,1546.376709 
	C1726.710083,1546.910889 1736.305786,1547.716309 1745.907715,1548.406006 
	C1762.787476,1549.618286 1779.661621,1551.794678 1796.546997,1551.885254 
	C1863.739380,1552.246094 1931.007568,1554.690186 1997.974731,1546.345459 
	C2017.061768,1543.967041 2036.381226,1543.030029 2055.282471,1539.676514 
	C2087.924072,1533.885742 2120.483398,1527.421509 2152.780762,1519.956543 
	C2193.738037,1510.490112 2233.008789,1496.117065 2270.224609,1476.261841 
	C2308.772217,1455.696289 2343.049805,1429.969238 2371.171143,1396.241089 
	C2400.302734,1361.301025 2413.825684,1320.950562 2413.941406,1275.829834 
	C2413.960205,1268.556030 2412.330078,1261.275513 2412.382568,1254.004639 
	C2412.794922,1197.395142 2413.689453,1140.788086 2413.886719,1084.178467 
	C2413.978271,1057.903687 2412.655029,1031.627075 2412.332520,1005.346863 
	C2412.049805,982.322021 2408.668213,959.709229 2404.077637,937.247253 
	C2393.965576,887.772522 2375.035645,841.880615 2346.822754,800.000061 
	C2337.559570,786.249329 2326.979736,773.385559 2316.083984,759.029541 
z"/>
<path fill="#7ABBFD" opacity="1.000000" stroke="none" 
	d="
M2310.689453,1796.598389 
	C2326.857178,1797.244629 2342.315674,1796.540283 2357.285645,1798.914917 
	C2376.870361,1802.021484 2393.474854,1812.013428 2405.849365,1827.900635 
	C2413.357178,1837.539429 2416.826660,1849.123413 2419.092529,1860.890625 
	C2420.588623,1868.659180 2421.331299,1876.685303 2421.376221,1884.602051 
	C2421.604492,1924.900269 2421.495605,1965.200439 2421.502686,2005.499878 
	C2421.502930,2007.165039 2421.588867,2008.839111 2421.452148,2010.493896 
	C2420.958496,2016.470947 2418.720703,2019.261719 2412.968994,2019.407593 
	C2400.987305,2019.711548 2388.991455,2019.584229 2377.003418,2019.458740 
	C2371.932129,2019.405762 2369.037842,2016.622681 2368.558105,2011.488525 
	C2368.230469,2007.982544 2369.212891,2003.935791 2364.050049,2001.814453 
	C2363.045410,2002.381348 2361.500000,2002.951904 2360.329102,2003.958374 
	C2338.751221,2022.502075 2313.937744,2028.350586 2286.035889,2024.003662 
	C2270.243652,2021.543091 2255.995850,2016.377441 2243.447754,2006.295410 
	C2224.164551,1990.802124 2217.667480,1970.436401 2221.476318,1946.864746 
	C2226.118896,1918.129883 2245.420898,1901.913086 2271.440918,1892.533081 
	C2289.681396,1885.957642 2308.629150,1882.916260 2328.026367,1882.500732 
	C2340.261230,1882.238647 2352.488770,1881.653687 2364.741455,1881.212769 
	C2367.944092,1871.424316 2367.094482,1863.962524 2360.928955,1856.953979 
	C2347.189697,1841.335693 2329.365479,1840.040039 2310.630127,1842.302246 
	C2296.865967,1843.964355 2284.492188,1849.296631 2273.285645,1857.638916 
	C2266.091309,1862.994507 2265.249023,1863.040283 2258.531250,1857.517456 
	C2251.877930,1852.047607 2245.655518,1845.949219 2239.874512,1839.556641 
	C2235.247070,1834.440063 2235.924561,1832.221680 2240.828125,1826.773682 
	C2253.627197,1812.553589 2270.576904,1805.916992 2288.322998,1800.927490 
	C2295.320312,1798.960083 2302.607666,1798.023560 2310.689453,1796.598389 
M2278.173096,1961.559814 
	C2283.787842,1974.935669 2294.024414,1981.536865 2308.352051,1981.980469 
	C2313.337402,1982.134766 2318.354248,1982.278931 2323.319336,1981.916992 
	C2353.027832,1979.751221 2368.640625,1959.642578 2367.831787,1931.402710 
	C2367.648193,1924.989868 2365.040283,1922.279419 2358.676270,1922.098511 
	C2338.701660,1921.530640 2318.873779,1922.343140 2299.735596,1929.124512 
	C2282.858887,1935.104248 2277.726318,1942.209351 2278.173096,1961.559814 
z"/>
<path fill="#79BBFE" opacity="1.000000" stroke="none" 
	d="
M2692.238770,1849.756714 
	C2694.134521,1864.301025 2696.869141,1878.077393 2697.110107,1891.897217 
	C2697.754395,1928.853149 2697.343262,1965.827637 2697.302734,2002.794800 
	C2697.299072,2006.104858 2697.358154,2009.509766 2696.637207,2012.701172 
	C2695.682861,2016.927246 2693.084473,2019.597778 2688.171631,2019.550781 
	C2674.518555,2019.419922 2660.860352,2019.692017 2647.211182,2019.427856 
	C2641.312256,2019.313599 2639.026855,2016.667847 2638.521729,2010.735840 
	C2638.296387,2008.089111 2638.425781,2005.410522 2638.425293,2002.746460 
	C2638.419922,1973.439209 2638.800049,1944.124634 2638.241211,1914.828003 
	C2638.002441,1902.298340 2636.973877,1889.548340 2634.271484,1877.348633 
	C2627.981445,1848.951782 2595.072266,1839.765015 2572.858154,1858.929688 
	C2560.060791,1869.970215 2555.682861,1883.822388 2555.569824,1899.624146 
	C2555.324219,1933.925415 2555.473389,1968.229248 2555.458008,2002.532104 
	C2555.456787,2005.196289 2555.584229,2007.872070 2555.384033,2010.522339 
	C2554.931152,2016.520264 2552.684814,2019.278320 2546.891357,2019.396729 
	C2532.910156,2019.682495 2518.918213,2019.577148 2504.932373,2019.451416 
	C2499.845703,2019.405518 2496.964355,2016.515747 2496.571289,2011.409058 
	C2496.393066,2009.089722 2496.474121,2006.749023 2496.474121,2004.417969 
	C2496.469727,1942.140015 2496.470215,1879.862061 2496.472412,1817.584106 
	C2496.472412,1815.585938 2496.382812,1813.579102 2496.533691,1811.591309 
	C2497.029785,1805.063232 2500.708008,1800.926758 2507.118896,1800.758179 
	C2518.434082,1800.460571 2529.772217,1800.394287 2541.082764,1800.770264 
	C2549.385254,1801.046143 2552.861328,1805.017456 2553.409424,1813.195679 
	C2553.597412,1816.001343 2554.005127,1818.792358 2554.570557,1823.940552 
	C2558.801025,1820.261719 2561.635010,1818.207886 2563.975098,1815.694092 
	C2576.566895,1802.166016 2592.466309,1796.859253 2610.478027,1796.462646 
	C2624.160400,1796.161499 2637.731445,1796.259155 2650.606201,1801.979370 
	C2671.635498,1811.322632 2685.269287,1827.085815 2692.238770,1849.756714 
z"/>
<path fill="#81BFFE" opacity="1.000000" stroke="none" 
	d="
M902.241577,1838.431396 
	C941.537598,1838.435791 979.864319,1838.412231 1018.190857,1838.460205 
	C1029.411011,1838.474243 1030.868042,1839.355591 1032.364014,1850.539551 
	C1033.040405,1855.595947 1032.144409,1861.115234 1030.742920,1866.080688 
	C1030.126587,1868.264404 1026.688477,1870.188232 1024.127075,1871.129272 
	C1021.764893,1871.996948 1018.861450,1871.428467 1016.196411,1871.429077 
	C975.870117,1871.437988 935.543884,1871.435791 895.217590,1871.439575 
	C892.551575,1871.439819 889.872314,1871.304565 887.222168,1871.517578 
	C881.200439,1872.001343 879.986633,1873.334717 879.502258,1879.598267 
	C879.399658,1880.924194 879.458618,1882.263428 879.458557,1883.596436 
	C879.455933,1913.924438 879.421753,1944.252563 879.472107,1974.580566 
	C879.490845,1985.861084 880.208008,1986.597168 891.333496,1986.607178 
	C937.992004,1986.649414 984.650574,1986.625000 1031.309082,1986.628662 
	C1033.975098,1986.628906 1036.661133,1986.458862 1039.303223,1986.719116 
	C1045.064575,1987.286621 1048.957031,1991.223267 1049.404785,1997.066284 
	C1049.684082,2000.711792 1049.557739,2004.395874 1049.477905,2008.059692 
	C1049.286255,2016.861450 1045.725708,2020.603394 1036.894775,2021.292725 
	C1034.906494,2021.447754 1032.897339,2021.341064 1030.897705,2021.341187 
	C974.907471,2021.342651 918.917297,2021.365479 862.927063,2021.329102 
	C845.475342,2021.317749 842.870605,2019.194946 842.817261,2001.022095 
	C842.541565,1907.039429 842.689148,1813.055298 842.690308,1719.071777 
	C842.690369,1717.738770 842.629578,1716.400024 842.726990,1715.073486 
	C843.776489,1700.784058 846.106201,1698.585693 860.286682,1698.583862 
	C915.943604,1698.576538 971.600525,1698.571533 1027.257446,1698.591797 
	C1039.642456,1698.596313 1043.000977,1701.883179 1043.257812,1714.540283 
	C1043.324097,1717.812866 1042.682007,1721.117432 1042.186890,1724.380249 
	C1041.290283,1730.288452 1037.285156,1732.779297 1031.779297,1733.271484 
	C1029.132690,1733.508179 1026.450562,1733.363892 1023.784607,1733.364136 
	C980.458862,1733.367920 937.133057,1733.365112 893.807312,1733.372070 
	C891.141785,1733.372559 888.469238,1733.331177 885.812439,1733.503052 
	C881.869141,1733.758301 879.802185,1736.030273 879.566895,1739.929077 
	C879.446594,1741.922729 879.458435,1743.926270 879.457947,1745.925293 
	C879.451538,1771.920776 879.430115,1797.916138 879.464233,1823.911621 
	C879.479492,1835.537231 881.524658,1837.660522 893.275024,1838.388550 
	C895.931396,1838.553223 898.605896,1838.424438 902.241577,1838.431396 
z"/>
<path fill="#79BBFE" opacity="1.000000" stroke="none" 
	d="
M2820.044434,1738.675049 
	C2827.004395,1738.728394 2833.050781,1738.295410 2838.979248,1738.942261 
	C2848.914795,1740.026367 2851.423584,1743.149902 2851.486572,1753.168091 
	C2851.564209,1765.491333 2851.425781,1777.816406 2851.552490,1790.138794 
	C2851.647461,1799.372925 2852.762207,1800.494263 2861.925049,1800.604614 
	C2872.914795,1800.737183 2883.907471,1800.604248 2894.898438,1800.674072 
	C2897.542480,1800.690918 2900.276367,1800.692871 2902.806152,1801.339111 
	C2907.028320,1802.417603 2909.677246,1804.944336 2909.605957,1809.855591 
	C2909.450928,1820.511475 2909.754150,1831.175415 2909.513184,1841.828003 
	C2909.353271,1848.908936 2906.871094,1851.307739 2899.716309,1851.502930 
	C2890.729736,1851.748047 2881.731934,1851.581421 2872.739014,1851.596191 
	C2870.074463,1851.600586 2867.398926,1851.461914 2864.747559,1851.654663 
	C2853.520752,1852.470825 2851.546143,1854.532471 2851.529541,1865.635010 
	C2851.492188,1890.615479 2851.383301,1915.597412 2851.635010,1940.575317 
	C2851.694824,1946.493896 2852.607666,1952.503296 2853.933105,1958.286255 
	C2855.909912,1966.912231 2864.822021,1974.168945 2874.572510,1974.216431 
	C2882.442383,1974.254761 2890.384033,1972.856934 2898.179688,1971.458496 
	C2907.676514,1969.754883 2909.425049,1970.810913 2909.561035,1980.567261 
	C2909.690674,1989.891479 2909.326416,1999.228394 2909.669922,2008.541626 
	C2909.905518,2014.931030 2906.977051,2018.930908 2901.320801,2020.518188 
	C2894.657471,2022.388062 2887.802979,2023.984375 2880.930908,2024.624146 
	C2863.363037,2026.260132 2845.990234,2026.026489 2828.870850,2020.138794 
	C2812.936035,2014.658203 2802.944336,2003.801758 2798.615234,1988.273682 
	C2795.439697,1976.883545 2793.173096,1964.903076 2792.850830,1953.121338 
	C2792.049316,1923.832886 2792.625000,1894.507690 2792.576904,1865.197266 
	C2792.558838,1854.268555 2790.148926,1851.872192 2779.049072,1851.623047 
	C2772.390625,1851.473511 2765.722168,1851.715088 2759.066650,1851.510376 
	C2751.204102,1851.268799 2748.844482,1849.055908 2748.674316,1841.428589 
	C2748.459229,1831.774292 2748.452393,1822.107666 2748.673096,1812.453735 
	C2748.854004,1804.536255 2752.476318,1800.949707 2760.343750,1800.702148 
	C2767.331543,1800.482300 2774.332031,1800.709229 2781.325684,1800.619995 
	C2791.589844,1800.489258 2792.495605,1799.575684 2792.572021,1788.960938 
	C2792.655762,1777.303955 2792.564697,1765.645874 2792.609863,1753.988403 
	C2792.656006,1742.115967 2795.938232,1738.887329 2808.086670,1738.686279 
	C2811.749512,1738.625610 2815.414307,1738.675049 2820.044434,1738.675049 
z"/>
<path fill="#81BFFE" opacity="1.000000" stroke="none" 
	d="
M1498.776489,1824.930908 
	C1484.852051,1859.921875 1471.182983,1894.185303 1457.622070,1928.491699 
	C1441.985474,1968.048950 1426.437012,2007.640991 1410.866211,2047.224243 
	C1406.121338,2059.286377 1401.760010,2071.513184 1396.588989,2083.388672 
	C1393.432861,2090.636230 1389.715942,2097.823730 1385.116211,2104.222412 
	C1374.364380,2119.179199 1359.286987,2126.948975 1340.886353,2127.276367 
	C1333.329834,2127.411133 1325.609619,2126.554932 1318.208496,2124.991943 
	C1310.170166,2123.293945 1307.574585,2118.262207 1308.946899,2110.088867 
	C1311.710571,2093.628174 1312.584717,2093.046143 1329.905396,2096.130859 
	C1344.307495,2098.695557 1356.113037,2092.988525 1363.210938,2078.372803 
	C1369.589478,2065.238770 1374.929565,2051.572510 1380.221313,2037.944458 
	C1388.922852,2015.534790 1389.052246,2020.902466 1378.953125,1996.612427 
	C1370.022217,1975.131592 1361.505371,1953.478638 1352.800293,1931.903931 
	C1341.982178,1905.092163 1331.168945,1878.278320 1320.331421,1851.474365 
	C1316.345337,1841.615845 1312.026733,1831.881958 1308.353271,1821.909668 
	C1304.866211,1812.442993 1307.489258,1808.884766 1317.398438,1808.578857 
	C1320.394897,1808.486206 1323.396362,1808.547241 1326.395630,1808.556763 
	C1338.563599,1808.595703 1340.290405,1809.690918 1344.773438,1821.091187 
	C1351.097656,1837.173462 1357.269409,1853.315308 1363.548584,1869.415283 
	C1375.622803,1900.374146 1387.662476,1931.346802 1399.944336,1962.223022 
	C1400.890747,1964.602417 1403.470459,1967.731201 1405.567383,1967.958252 
	C1409.738281,1968.409668 1410.057861,1963.963867 1411.224243,1960.936157 
	C1429.384399,1913.794678 1447.512207,1866.640625 1465.761108,1819.533691 
	C1469.601440,1809.620605 1471.385376,1808.635132 1482.025269,1808.561035 
	C1485.357666,1808.537720 1488.699341,1808.413452 1492.020874,1808.607788 
	C1500.082031,1809.079224 1502.348633,1812.400513 1500.238647,1820.400391 
	C1499.899414,1821.686890 1499.468262,1822.948975 1498.776489,1824.930908 
z"/>
<path fill="#81BFFE" opacity="1.000000" stroke="none" 
	d="
M1204.982910,1856.858643 
	C1208.395630,1852.330200 1211.322754,1848.333862 1214.064819,1844.590332 
	C1212.899902,1839.142822 1208.936035,1839.514404 1205.306030,1839.496704 
	C1193.977295,1839.441284 1182.648315,1839.473511 1171.319336,1839.471558 
	C1153.659546,1839.468384 1135.999390,1839.534668 1118.340088,1839.435425 
	C1108.043213,1839.377563 1104.686401,1835.920166 1104.490845,1825.691772 
	C1104.180786,1809.482544 1105.041504,1808.562500 1120.955566,1808.557617 
	C1163.938843,1808.544312 1206.922241,1808.529907 1249.905518,1808.567261 
	C1264.299805,1808.579712 1269.962891,1817.271729 1263.135010,1830.111084 
	C1258.963501,1837.955322 1253.174316,1844.969116 1247.861206,1852.170898 
	C1229.926636,1876.481079 1211.894897,1900.719604 1193.871704,1924.964233 
	C1180.807007,1942.538818 1167.672119,1960.061157 1154.634277,1977.655518 
	C1152.727783,1980.228149 1151.187622,1983.072144 1148.358032,1987.570801 
	C1153.557373,1988.056030 1156.953003,1988.638550 1160.350220,1988.647949 
	C1187.672729,1988.723999 1214.995972,1988.602783 1242.317749,1988.766602 
	C1247.918579,1988.800171 1253.551514,1989.530029 1259.102661,1990.377441 
	C1267.742798,1991.696045 1270.857422,1995.455078 1271.272949,2004.267334 
	C1271.662476,2012.528931 1268.113892,2018.085571 1260.742065,2020.031494 
	C1257.578247,2020.866699 1254.210571,2021.281982 1250.934570,2021.287720 
	C1205.618896,2021.366699 1160.303223,2021.340942 1114.987427,2021.341064 
	C1114.654297,2021.341064 1114.320923,2021.334595 1113.987915,2021.340942 
	C1099.065430,2021.625854 1096.081787,2013.126709 1099.726685,2000.168579 
	C1100.600830,1997.061035 1102.567017,1994.129395 1104.520264,1991.477295 
	C1121.446533,1968.496826 1138.436157,1945.562622 1155.503174,1922.686401 
	C1171.774658,1900.876343 1188.161255,1879.152344 1204.982910,1856.858643 
z"/>
<path fill="#A6D1FE" opacity="1.000000" stroke="none" 
	d="
M2024.346558,1952.943604 
	C2038.724609,1974.067139 2064.816162,1976.111084 2082.856934,1958.789795 
	C2091.909424,1950.098633 2095.200195,1939.672119 2096.416748,1927.695557 
	C2100.130127,1891.138428 2097.253662,1854.503052 2098.200195,1817.919556 
	C2098.277588,1814.921631 2098.043701,1811.902344 2098.312744,1808.925415 
	C2098.832275,1803.177612 2101.337158,1800.434692 2107.192139,1800.328125 
	C2121.185547,1800.073608 2135.190430,1800.062744 2149.183105,1800.336792 
	C2154.856934,1800.447876 2158.987061,1804.853638 2159.635742,1810.439331 
	C2159.864990,1812.414185 2159.714355,1814.434692 2159.714355,1816.434326 
	C2159.716309,1879.426636 2159.739990,1942.418945 2159.651855,2005.411133 
	C2159.646729,2008.972412 2159.504395,2012.906494 2158.027832,2015.999878 
	C2156.095215,2020.049072 2152.202637,2021.903076 2147.273926,2021.786011 
	C2136.281494,2021.524780 2125.277832,2021.787231 2114.280029,2021.689697 
	C2104.474121,2021.602539 2101.471924,2018.774780 2100.203369,2009.014893 
	C2100.001709,2007.462524 2099.458008,2005.954468 2098.665283,2002.810181 
	C2095.515381,2004.782715 2092.856934,2005.864014 2090.964844,2007.724609 
	C2075.721191,2022.715332 2056.537109,2027.738037 2036.236694,2027.388916 
	C2015.268555,2027.028564 1995.277588,2021.280884 1979.898926,2005.993530 
	C1968.094604,1994.259399 1961.065796,1979.311279 1958.494995,1962.894531 
	C1956.758545,1951.805908 1956.404785,1940.423218 1956.328369,1929.166016 
	C1956.076904,1892.172241 1956.233398,1855.175659 1956.235596,1818.180176 
	C1956.235840,1815.513916 1956.136597,1812.840698 1956.289062,1810.182617 
	C1956.694336,1803.111450 1959.044189,1800.415161 1965.980713,1800.299927 
	C1979.975098,1800.067505 1993.979492,1800.047607 2007.972900,1800.310547 
	C2015.517212,1800.452271 2017.667603,1803.241943 2017.698853,1812.156860 
	C2017.787720,1837.486694 2017.496582,1862.820312 2017.827148,1888.146240 
	C2018.039429,1904.407715 2018.799805,1920.677979 2019.924316,1936.902222 
	C2020.283691,1942.086304 2022.598877,1947.134766 2024.346558,1952.943604 
M2062.480469,2014.067383 
	C2076.080078,2009.755371 2085.912109,2000.781006 2094.098877,1989.391113 
	C2096.409424,1986.176392 2099.123535,1981.051636 2104.218262,1982.784668 
	C2109.241943,1984.493530 2109.859375,1989.683350 2109.873047,1994.529297 
	C2109.881592,1997.529053 2109.763428,2000.535156 2109.922363,2003.526611 
	C2110.057861,2006.074707 2110.507812,2008.605957 2110.930664,2012.059692 
	C2122.103760,2012.059692 2132.700195,2012.085449 2143.296387,2012.047363 
	C2147.775391,2012.031128 2150.001465,2009.658813 2150.041260,2005.205566 
	C2150.064941,2002.539429 2150.085938,1999.873169 2150.086182,1997.206909 
	C2150.088623,1939.878540 2150.088135,1882.550293 2150.087891,1825.221924 
	C2150.087891,1822.888794 2150.182129,1820.550293 2150.058838,1818.223511 
	C2149.691895,1811.292725 2148.673584,1810.094849 2141.741943,1809.930542 
	C2132.747803,1809.717163 2123.742188,1809.742065 2114.746582,1809.924194 
	C2108.498779,1810.050659 2106.677734,1811.907593 2106.040039,1818.277588 
	C2105.775635,1820.919067 2105.951416,1823.605835 2105.950439,1826.272095 
	C2105.937988,1859.602539 2106.198730,1892.936035 2105.799316,1926.261841 
	C2105.618896,1941.290527 2101.120117,1954.843506 2089.490723,1965.600952 
	C2081.318115,1973.161011 2072.140137,1976.797241 2061.245361,1978.779907 
	C2048.831299,1981.039062 2038.057007,1978.420776 2028.199707,1971.807129 
	C2019.279297,1965.821899 2014.676025,1956.127075 2012.333374,1946.086060 
	C2009.942749,1935.839478 2008.472900,1925.167847 2008.298462,1914.654175 
	C2007.784668,1883.665405 2008.129150,1852.662720 2008.087646,1821.665405 
	C2008.082886,1818.115845 2007.762695,1814.566772 2007.565186,1810.534668 
	C1993.493042,1810.534668 1980.371948,1810.534668 1966.392090,1810.534668 
	C1966.204102,1814.717285 1965.907104,1818.280762 1965.904419,1821.844482 
	C1965.872803,1862.174316 1966.029663,1902.504883 1965.801025,1942.833374 
	C1965.732056,1955.008423 1967.632935,1966.791382 1972.281128,1977.838257 
	C1978.061157,1991.574707 1987.213989,2003.459595 2000.830566,2009.756104 
	C2019.966064,2018.604614 2040.240234,2021.011719 2062.480469,2014.067383 
z"/>
<path fill="#C9E3FE" opacity="1.000000" stroke="none" 
	d="
M1774.535767,1699.344971 
	C1793.321533,1706.708618 1809.875610,1716.217896 1825.250977,1728.172485 
	C1850.011963,1747.424927 1865.751709,1772.855713 1876.308105,1801.622925 
	C1880.365479,1812.679565 1882.758667,1824.751343 1883.526611,1836.516235 
	C1884.690796,1854.350220 1885.067627,1872.359497 1880.301392,1890.013428 
	C1874.857910,1910.176270 1866.384155,1928.701050 1852.432983,1944.426758 
	C1848.739868,1948.589355 1844.510132,1952.271240 1840.686768,1956.324707 
	C1838.756104,1958.371704 1837.182495,1960.755493 1834.062500,1964.768188 
	C1838.914795,1965.396729 1841.640991,1966.038452 1844.371094,1966.055908 
	C1860.036621,1966.155151 1875.704224,1966.017700 1891.368652,1966.180298 
	C1894.613892,1966.213867 1898.011353,1966.725220 1901.051392,1967.816650 
	C1905.435669,1969.390747 1908.002563,1972.616089 1907.944702,1977.704102 
	C1907.811890,1989.368774 1908.087646,2001.040283 1907.815796,2012.700195 
	C1907.670166,2018.947998 1904.825195,2021.441162 1898.432251,2021.878296 
	C1895.445557,2022.082275 1892.434814,2021.948730 1889.435059,2021.948608 
	C1829.770386,2021.946655 1770.104492,2021.727783 1710.441406,2022.033936 
	C1683.307495,2022.173218 1657.718750,2016.105469 1633.515137,2004.421631 
	C1617.638062,1996.757080 1602.484009,1987.327759 1590.159302,1974.673096 
	C1567.444824,1951.350708 1552.042603,1923.666870 1546.279053,1891.363403 
	C1543.961426,1878.374512 1542.464600,1865.075684 1542.313599,1851.898193 
	C1542.020508,1826.292969 1548.174561,1801.825439 1560.110718,1779.211670 
	C1583.263306,1735.348145 1619.783813,1707.839478 1667.257080,1694.856323 
	C1678.346924,1691.823486 1689.869629,1690.491211 1701.573730,1689.698608 
	C1726.454468,1688.013550 1750.300537,1691.539062 1774.535767,1699.344971 
M1699.252930,1697.863525 
	C1683.074341,1697.935059 1667.695190,1702.137817 1652.739136,1707.682251 
	C1625.078613,1717.936035 1601.794434,1734.418213 1583.208984,1757.553955 
	C1570.959595,1772.802002 1561.386719,1789.603516 1556.495728,1808.339722 
	C1551.059326,1829.164917 1548.154541,1850.348267 1551.473022,1872.301636 
	C1554.371826,1891.478394 1558.108765,1909.994507 1566.489990,1927.685791 
	C1582.645630,1961.787231 1608.778442,1984.732788 1642.705444,2000.164551 
	C1670.689819,2012.893433 1700.477173,2015.105713 1730.262817,2015.692627 
	C1780.218994,2016.677246 1830.208618,2016.008667 1880.183716,2015.884766 
	C1884.776733,2015.873413 1889.359985,2014.710083 1893.960449,2014.195190 
	C1898.527100,2013.684204 1900.138916,2010.929443 1900.116943,2006.675537 
	C1900.078979,1999.346069 1900.190674,1992.015503 1900.108887,1984.686890 
	C1899.997925,1974.759399 1899.298950,1974.028076 1889.130127,1973.989746 
	C1868.473999,1973.911865 1847.816772,1974.013550 1827.160889,1973.895996 
	C1823.382446,1973.874390 1818.378418,1975.391724 1816.781250,1970.353027 
	C1815.213989,1965.408569 1819.893311,1963.745850 1823.081177,1961.458252 
	C1842.103516,1947.807983 1856.647217,1930.634521 1865.850098,1908.850586 
	C1873.911133,1889.769653 1876.470459,1870.057373 1876.263184,1849.501587 
	C1875.962280,1819.641968 1867.161255,1792.634766 1851.101440,1767.836426 
	C1838.419312,1748.253662 1821.711182,1732.566406 1801.568237,1720.968384 
	C1776.775757,1706.693359 1750.481323,1696.879883 1721.182739,1697.799805 
	C1714.525757,1698.008789 1707.856934,1697.842407 1699.252930,1697.863525 
z"/>
<path fill="#FBFCFE" opacity="1.000000" stroke="none" 
	d="
M2316.542969,759.572876 
	C2326.979736,773.385559 2337.559570,786.249329 2346.822754,800.000061 
	C2375.035645,841.880615 2393.965576,887.772522 2404.077637,937.247253 
	C2408.668213,959.709229 2412.049805,982.322021 2412.332520,1005.346863 
	C2412.655029,1031.627075 2413.978271,1057.903687 2413.886719,1084.178467 
	C2413.689453,1140.788086 2412.794922,1197.395142 2412.382568,1254.004639 
	C2412.330078,1261.275513 2413.960205,1268.556030 2413.941406,1275.829834 
	C2413.825684,1320.950562 2400.302734,1361.301025 2371.171143,1396.241089 
	C2343.049805,1429.969238 2308.772217,1455.696289 2270.224609,1476.261841 
	C2233.008789,1496.117065 2193.738037,1510.490112 2152.780762,1519.956543 
	C2120.483398,1527.421509 2087.924072,1533.885742 2055.282471,1539.676514 
	C2036.381226,1543.030029 2017.061768,1543.967041 1997.974731,1546.345459 
	C1931.007568,1554.690186 1863.739380,1552.246094 1796.546997,1551.885254 
	C1779.661621,1551.794678 1762.787476,1549.618286 1745.907715,1548.406006 
	C1736.305786,1547.716309 1726.710083,1546.910889 1717.099365,1546.376709 
	C1679.930176,1544.310913 1643.125000,1539.177124 1606.667480,1531.985962 
	C1559.608521,1522.703491 1513.715576,1509.371216 1469.594116,1490.171143 
	C1439.232788,1476.959229 1410.357422,1461.401855 1384.547119,1440.499756 
	C1365.365112,1424.965576 1348.146606,1407.545044 1333.530273,1387.592285 
	C1323.070679,1373.313721 1313.722168,1358.445557 1307.650146,1341.693604 
	C1301.952026,1325.972900 1297.926270,1309.861450 1297.909180,1293.089844 
	C1297.813354,1198.761841 1296.900635,1104.418091 1298.338989,1010.111328 
	C1299.118164,959.021790 1309.803467,909.248047 1329.825439,861.836975 
	C1344.688843,826.640991 1364.328369,794.465759 1389.151367,765.339294 
	C1427.234619,720.653564 1472.917847,686.000610 1524.963135,659.077881 
	C1573.612061,633.912109 1625.325684,618.248779 1678.809570,608.394592 
	C1706.477417,603.296875 1734.696411,601.209534 1762.653320,597.658020 
	C1812.401489,591.338196 1862.377563,593.606934 1912.263672,594.195740 
	C1932.088745,594.429749 1951.956543,597.150574 1971.663086,599.795715 
	C1996.951904,603.190125 2022.223022,606.997498 2047.275879,611.803711 
	C2083.903809,618.830444 2119.615234,629.214844 2154.078369,643.735474 
	C2188.561768,658.264587 2221.132812,676.102783 2251.152100,698.489563 
	C2275.012695,716.283752 2295.466064,737.748718 2316.542969,759.572876 
M1455.934448,988.942200 
	C1442.925781,1001.534546 1432.573730,1016.178345 1423.467407,1031.701416 
	C1406.042236,1061.404175 1395.543457,1093.646973 1392.426147,1127.751099 
	C1390.620239,1147.508179 1390.498291,1167.615356 1393.831055,1187.503174 
	C1397.309937,1208.261841 1402.715454,1228.342041 1411.604736,1247.497070 
	C1424.929321,1276.210205 1442.811768,1301.281616 1466.783081,1322.307617 
	C1483.950806,1337.365967 1502.296509,1350.446533 1522.789917,1360.132690 
	C1556.914795,1376.261719 1593.223511,1383.953369 1630.921265,1384.000244 
	C1773.210205,1384.177124 1915.500000,1384.229370 2057.788330,1383.898315 
	C2078.660156,1383.849731 2099.545654,1381.724609 2120.390137,1380.113403 
	C2144.557861,1378.245117 2167.292969,1370.744141 2188.971680,1360.361938 
	C2221.297363,1344.881104 2248.728027,1322.881958 2270.252930,1294.235840 
	C2280.187256,1281.015015 2289.294922,1266.843506 2296.546631,1252.012207 
	C2308.113525,1228.355103 2315.245361,1203.160522 2318.523438,1176.783325 
	C2322.106934,1147.945923 2319.410400,1119.830444 2312.297852,1091.908691 
	C2307.332031,1072.412476 2298.938232,1054.313843 2289.364502,1036.762695 
	C2274.723633,1009.922119 2255.719482,986.427612 2231.888428,967.339783 
	C2190.646484,934.306763 2142.496094,918.622681 2090.362793,918.325195 
	C1935.749023,917.442810 1781.127197,917.872314 1626.508911,918.136658 
	C1611.983521,918.161499 1597.367676,920.000305 1582.960205,922.124695 
	C1558.752319,925.694092 1535.873535,934.066589 1514.227051,945.170044 
	C1492.836548,956.142212 1473.412231,970.177246 1455.934448,988.942200 
z"/>
<path fill="#F6FAFE" opacity="1.000000" stroke="none" 
	d="
M2278.072266,1960.736938 
	C2277.726318,1942.209351 2282.858887,1935.104248 2299.735596,1929.124512 
	C2318.873779,1922.343140 2338.701660,1921.530640 2358.676270,1922.098511 
	C2365.040283,1922.279419 2367.648193,1924.989868 2367.831787,1931.402710 
	C2368.640625,1959.642578 2353.027832,1979.751221 2323.319336,1981.916992 
	C2318.354248,1982.278931 2313.337402,1982.134766 2308.352051,1981.980469 
	C2294.024414,1981.536865 2283.787842,1974.935669 2278.072266,1960.736938 
z"/>
<path fill="#71B7FE" opacity="1.000000" stroke="none" 
	d="
M2061.674561,2014.160889 
	C2040.240234,2021.011719 2019.966064,2018.604614 2000.830566,2009.756104 
	C1987.213989,2003.459595 1978.061157,1991.574707 1972.281128,1977.838257 
	C1967.632935,1966.791382 1965.732056,1955.008423 1965.801025,1942.833374 
	C1966.029663,1902.504883 1965.872803,1862.174316 1965.904419,1821.844482 
	C1965.907104,1818.280762 1966.204102,1814.717285 1966.392090,1810.534668 
	C1980.371948,1810.534668 1993.493042,1810.534668 2007.565186,1810.534668 
	C2007.762695,1814.566772 2008.082886,1818.115845 2008.087646,1821.665405 
	C2008.129150,1852.662720 2007.784668,1883.665405 2008.298462,1914.654175 
	C2008.472900,1925.167847 2009.942749,1935.839478 2012.333374,1946.086060 
	C2014.676025,1956.127075 2019.279297,1965.821899 2028.199707,1971.807129 
	C2038.057007,1978.420776 2048.831299,1981.039062 2061.245361,1978.779907 
	C2072.140137,1976.797241 2081.318115,1973.161011 2089.490723,1965.600952 
	C2101.120117,1954.843506 2105.618896,1941.290527 2105.799316,1926.261841 
	C2106.198730,1892.936035 2105.937988,1859.602539 2105.950439,1826.272095 
	C2105.951416,1823.605835 2105.775635,1820.919067 2106.040039,1818.277588 
	C2106.677734,1811.907593 2108.498779,1810.050659 2114.746582,1809.924194 
	C2123.742188,1809.742065 2132.747803,1809.717163 2141.741943,1809.930542 
	C2148.673584,1810.094849 2149.691895,1811.292725 2150.058838,1818.223511 
	C2150.182129,1820.550293 2150.087891,1822.888794 2150.087891,1825.221924 
	C2150.088135,1882.550293 2150.088623,1939.878540 2150.086182,1997.206909 
	C2150.085938,1999.873169 2150.064941,2002.539429 2150.041260,2005.205566 
	C2150.001465,2009.658813 2147.775391,2012.031128 2143.296387,2012.047363 
	C2132.700195,2012.085449 2122.103760,2012.059692 2110.930664,2012.059692 
	C2110.507812,2008.605957 2110.057861,2006.074707 2109.922363,2003.526611 
	C2109.763428,2000.535156 2109.881592,1997.529053 2109.873047,1994.529297 
	C2109.859375,1989.683350 2109.241943,1984.493530 2104.218262,1982.784668 
	C2099.123535,1981.051636 2096.409424,1986.176392 2094.098877,1989.391113 
	C2085.912109,2000.781006 2076.080078,2009.755371 2061.674561,2014.160889 
z"/>
<path fill="#76B9FE" opacity="1.000000" stroke="none" 
	d="
M1700.223267,1697.856201 
	C1707.856934,1697.842407 1714.525757,1698.008789 1721.182739,1697.799805 
	C1750.481323,1696.879883 1776.775757,1706.693359 1801.568237,1720.968384 
	C1821.711182,1732.566406 1838.419312,1748.253662 1851.101440,1767.836426 
	C1867.161255,1792.634766 1875.962280,1819.641968 1876.263184,1849.501587 
	C1876.470459,1870.057373 1873.911133,1889.769653 1865.850098,1908.850586 
	C1856.647217,1930.634521 1842.103516,1947.807983 1823.081177,1961.458252 
	C1819.893311,1963.745850 1815.213989,1965.408569 1816.781250,1970.353027 
	C1818.378418,1975.391724 1823.382446,1973.874390 1827.160889,1973.895996 
	C1847.816772,1974.013550 1868.473999,1973.911865 1889.130127,1973.989746 
	C1899.298950,1974.028076 1899.997925,1974.759399 1900.108887,1984.686890 
	C1900.190674,1992.015503 1900.078979,1999.346069 1900.116943,2006.675537 
	C1900.138916,2010.929443 1898.527100,2013.684204 1893.960449,2014.195190 
	C1889.359985,2014.710083 1884.776733,2015.873413 1880.183716,2015.884766 
	C1830.208618,2016.008667 1780.218994,2016.677246 1730.262817,2015.692627 
	C1700.477173,2015.105713 1670.689819,2012.893433 1642.705444,2000.164551 
	C1608.778442,1984.732788 1582.645630,1961.787231 1566.489990,1927.685791 
	C1558.108765,1909.994507 1554.371826,1891.478394 1551.473022,1872.301636 
	C1548.154541,1850.348267 1551.059326,1829.164917 1556.495728,1808.339722 
	C1561.386719,1789.603516 1570.959595,1772.802002 1583.208984,1757.553955 
	C1601.794434,1734.418213 1625.078613,1717.936035 1652.739136,1707.682251 
	C1667.695190,1702.137817 1683.074341,1697.935059 1700.223267,1697.856201 
M1819.815918,1864.261841 
	C1820.599731,1843.048218 1817.738281,1822.583374 1808.176392,1803.289307 
	C1799.552368,1785.887451 1787.610107,1771.412598 1770.847046,1761.577393 
	C1743.477051,1745.518799 1714.223022,1741.567871 1683.425293,1749.656860 
	C1655.174561,1757.077148 1633.745850,1773.663086 1620.495605,1799.434814 
	C1602.521118,1834.395386 1602.866699,1870.505981 1618.242065,1906.284546 
	C1628.364380,1929.838867 1645.909302,1946.932007 1669.261475,1957.296631 
	C1690.798706,1966.855469 1713.605835,1968.987305 1736.607788,1963.799438 
	C1771.398682,1955.952637 1795.690063,1935.118530 1810.278931,1902.578979 
	C1815.528931,1890.869385 1817.520020,1878.500854 1819.815918,1864.261841 
z"/>
<path fill="#71B7FE" opacity="1.000000" stroke="none" 
	d="
M1456.432617,988.440247 
	C1473.412231,970.177246 1492.836548,956.142212 1514.227051,945.170044 
	C1535.873535,934.066589 1558.752319,925.694092 1582.960205,922.124695 
	C1597.367676,920.000305 1611.983521,918.161499 1626.508911,918.136658 
	C1781.127197,917.872314 1935.749023,917.442810 2090.362793,918.325195 
	C2142.496094,918.622681 2190.646484,934.306763 2231.888428,967.339783 
	C2255.719482,986.427612 2274.723633,1009.922119 2289.364502,1036.762695 
	C2298.938232,1054.313843 2307.332031,1072.412476 2312.297852,1091.908691 
	C2319.410400,1119.830444 2322.106934,1147.945923 2318.523438,1176.783325 
	C2315.245361,1203.160522 2308.113525,1228.355103 2296.546631,1252.012207 
	C2289.294922,1266.843506 2280.187256,1281.015015 2270.252930,1294.235840 
	C2248.728027,1322.881958 2221.297363,1344.881104 2188.971680,1360.361938 
	C2167.292969,1370.744141 2144.557861,1378.245117 2120.390137,1380.113403 
	C2099.545654,1381.724609 2078.660156,1383.849731 2057.788330,1383.898315 
	C1915.500000,1384.229370 1773.210205,1384.177124 1630.921265,1384.000244 
	C1593.223511,1383.953369 1556.914795,1376.261719 1522.789917,1360.132690 
	C1502.296509,1350.446533 1483.950806,1337.365967 1466.783081,1322.307617 
	C1442.811768,1301.281616 1424.929321,1276.210205 1411.604736,1247.497070 
	C1402.715454,1228.342041 1397.309937,1208.261841 1393.831055,1187.503174 
	C1390.498291,1167.615356 1390.620239,1147.508179 1392.426147,1127.751099 
	C1395.543457,1093.646973 1406.042236,1061.404175 1423.467407,1031.701416 
	C1432.573730,1016.178345 1442.925781,1001.534546 1456.432617,988.440247 
M2158.733398,1211.635742 
	C2159.649170,1210.247681 2160.501465,1208.812744 2161.489746,1207.478394 
	C2177.191895,1186.278076 2184.132080,1163.013916 2180.116211,1136.418945 
	C2175.167480,1103.646851 2156.992188,1080.452637 2127.979004,1066.872925 
	C2088.754639,1048.514160 2039.873169,1057.996338 2012.435181,1094.863037 
	C1996.464355,1116.322266 1990.494263,1140.691895 1995.106689,1166.562134 
	C2001.216309,1200.829224 2021.919678,1224.662598 2053.729248,1238.362549 
	C2066.932373,1244.049072 2081.198730,1246.919312 2095.611084,1245.223633 
	C2120.310303,1242.317871 2141.250488,1231.542358 2158.733398,1211.635742 
M1669.116699,1232.177124 
	C1689.007446,1221.057251 1703.573364,1205.355347 1711.037231,1183.522583 
	C1716.247314,1168.281860 1719.064941,1153.074585 1716.168091,1136.646240 
	C1713.128418,1119.408447 1707.028076,1103.834106 1695.453491,1091.031006 
	C1670.775635,1063.733765 1639.840820,1053.142578 1603.624268,1060.204956 
	C1569.956299,1066.770142 1547.187256,1086.703857 1534.893433,1118.770996 
	C1529.871704,1131.869751 1529.422729,1145.438354 1530.209717,1159.086304 
	C1531.705688,1185.033936 1542.316406,1207.055786 1562.863037,1222.735718 
	C1595.356445,1247.532471 1630.749878,1250.930908 1669.116699,1232.177124 
z"/>
<path fill="#FBFDFF" opacity="1.000000" stroke="none" 
	d="
M1819.697510,1865.164795 
	C1817.520020,1878.500854 1815.528931,1890.869385 1810.278931,1902.578979 
	C1795.690063,1935.118530 1771.398682,1955.952637 1736.607788,1963.799438 
	C1713.605835,1968.987305 1690.798706,1966.855469 1669.261475,1957.296631 
	C1645.909302,1946.932007 1628.364380,1929.838867 1618.242065,1906.284546 
	C1602.866699,1870.505981 1602.521118,1834.395386 1620.495605,1799.434814 
	C1633.745850,1773.663086 1655.174561,1757.077148 1683.425293,1749.656860 
	C1714.223022,1741.567871 1743.477051,1745.518799 1770.847046,1761.577393 
	C1787.610107,1771.412598 1799.552368,1785.887451 1808.176392,1803.289307 
	C1817.738281,1822.583374 1820.599731,1843.048218 1819.697510,1865.164795 
z"/>
<path fill="#F6FAFE" opacity="1.000000" stroke="none" 
	d="
M2158.274414,1212.182129 
	C2141.250488,1231.542358 2120.310303,1242.317871 2095.611084,1245.223633 
	C2081.198730,1246.919312 2066.932373,1244.049072 2053.729248,1238.362549 
	C2021.919678,1224.662598 2001.216309,1200.829224 1995.106689,1166.562134 
	C1990.494263,1140.691895 1996.464355,1116.322266 2012.435181,1094.863037 
	C2039.873169,1057.996338 2088.754639,1048.514160 2127.979004,1066.872925 
	C2156.992188,1080.452637 2175.167480,1103.646851 2180.116211,1136.418945 
	C2184.132080,1163.013916 2177.191895,1186.278076 2161.489746,1207.478394 
	C2160.501465,1208.812744 2159.649170,1210.247681 2158.274414,1212.182129 
M2059.499023,1162.579834 
	C2065.128906,1175.346436 2074.440430,1182.243042 2088.873535,1182.002686 
	C2102.260498,1181.779541 2110.240234,1174.751465 2115.380127,1163.114502 
	C2120.577148,1151.348267 2117.721680,1136.924316 2108.186768,1127.457275 
	C2098.963379,1118.299927 2083.666504,1117.381226 2073.911621,1122.838013 
	C2064.958496,1127.846191 2057.106689,1135.068115 2057.984131,1147.226562 
	C2058.317139,1151.838989 2058.553711,1156.458374 2059.499023,1162.579834 
z"/>
<path fill="#F6FAFE" opacity="1.000000" stroke="none" 
	d="
M1668.458496,1232.524170 
	C1630.749878,1250.930908 1595.356445,1247.532471 1562.863037,1222.735718 
	C1542.316406,1207.055786 1531.705688,1185.033936 1530.209717,1159.086304 
	C1529.422729,1145.438354 1529.871704,1131.869751 1534.893433,1118.770996 
	C1547.187256,1086.703857 1569.956299,1066.770142 1603.624268,1060.204956 
	C1639.840820,1053.142578 1670.775635,1063.733765 1695.453491,1091.031006 
	C1707.028076,1103.834106 1713.128418,1119.408447 1716.168091,1136.646240 
	C1719.064941,1153.074585 1716.247314,1168.281860 1711.037231,1183.522583 
	C1703.573364,1205.355347 1689.007446,1221.057251 1668.458496,1232.524170 
M1642.661621,1126.111206 
	C1631.548584,1118.057617 1619.689087,1117.288696 1608.118408,1124.236938 
	C1597.242310,1130.768188 1590.706787,1140.277466 1592.004272,1153.956787 
	C1592.858887,1162.968018 1597.907349,1169.205933 1604.084106,1174.989014 
	C1617.302612,1187.364990 1639.687256,1183.792969 1648.848022,1168.228271 
	C1656.781006,1154.749756 1655.689209,1140.508301 1642.661621,1126.111206 
z"/>
<path fill="#7ABBFD" opacity="1.000000" stroke="none" 
	d="
M2059.166748,1161.827148 
	C2058.553711,1156.458374 2058.317139,1151.838989 2057.984131,1147.226562 
	C2057.106689,1135.068115 2064.958496,1127.846191 2073.911621,1122.838013 
	C2083.666504,1117.381226 2098.963379,1118.299927 2108.186768,1127.457275 
	C2117.721680,1136.924316 2120.577148,1151.348267 2115.380127,1163.114502 
	C2110.240234,1174.751465 2102.260498,1181.779541 2088.873535,1182.002686 
	C2074.440430,1182.243042 2065.128906,1175.346436 2059.166748,1161.827148 
z"/>
<path fill="#7ABBFD" opacity="1.000000" stroke="none" 
	d="
M1643.200928,1126.623779 
	C1655.689209,1140.508301 1656.781006,1154.749756 1648.848022,1168.228271 
	C1639.687256,1183.792969 1617.302612,1187.364990 1604.084106,1174.989014 
	C1597.907349,1169.205933 1592.858887,1162.968018 1592.004272,1153.956787 
	C1590.706787,1140.277466 1597.242310,1130.768188 1608.118408,1124.236938 
	C1619.689087,1117.288696 1631.548584,1118.057617 1643.200928,1126.623779 
z"/>
</svg>